<svg xmlns="http://www.w3.org/2000/svg" viewBox="0 0 23 23"><path d="M1 1h7v7h-7zM9 1h1v1h-1zM11 1h2v1h-1v1h-1v1h-1v-2h1zM15 1h7v7h-7zM2 2v5h5v-5zM16 2v5h5v-5zM3 3h3v3h-3zM12 3h2v1h-2zM17 3h3v3h-3zM9 4h1v4h1v-4h1v2h1v1h-1v1h1v-1h1v2h-1v1h1v1h-1v1h-2v-1h1v-1h-1v1h-1v-1h-1v1h-1v-1h-1v-1h2zM13 5h1v1h-1zM1 9h1v1h-1zM5 9h1v1h-1zM14 9h5v1h2v2h-1v-1h-2v-1h-1v1h1v2h-1v-1h-1v3h-1v1h-1v1h-1v1h1v1h-1v1h-2v-1h1v-1h-1v-1h1v-1h1v-3h1v-1h1v-1h1v-1h-2zM21 9h1v1h-1zM2 10h3v1h1v-1h1v1h1v1h-1v1h-1v-1h-1v2h-2v-1h1v-2h-1v2h-1zM1 13h1v1h-1zM7 13h1v1h-1zM11 13h1v2h-2v1h-1v-2h2zM18 13h1v1h-1zM20 13h1v1h1v1h-1v1h1v3h-2v-1h-1v-1h1zM1 15h7v7h-7zM2 16v5h5v-5zM10 16h1v1h-1zM16 16h1v1h1v1h-1v1h1v-1h1v1h1v3h-1v-2h-1v1h-1v-1h-1v2h-3v-1h1v-1h1v-1h1v-1h-1v-1h1zM18 16h1v1h-1zM3 17h3v3h-3zM9 17h1v1h-1zM10 18h1v1h-1zM9 21h3v1h-3zM21 21h1v1h-1z"/></svg>